<?xml version="1.0" standalone="no"?>
<!DOCTYPE svg PUBLIC "-//W3C//DTD SVG 20010904//EN"
 "http://www.w3.org/TR/2001/REC-SVG-20010904/DTD/svg10.dtd">
<svg version="1.0" xmlns="http://www.w3.org/2000/svg"
 width="390.000000pt" height="371.000000pt" viewBox="0 0 390.000000 371.000000"
 preserveAspectRatio="xMidYMid meet">
<metadata>
Created by potrace 1.16, written by Peter Selinger 2001-2019
</metadata>
<g transform="translate(0.000000,371.000000) scale(0.100000,-0.100000)"
fill="#000000" stroke="none">
<path d="M1500 3601 c-102 -33 -180 -127 -180 -217 0 -24 -1 -24 -107 -24 -65
0 -118 -5 -133 -13 -14 -7 -36 -35 -50 -64 l-25 -53 -232 0 c-276 0 -314 -9
-383 -87 -74 -85 -70 5 -70 -1453 0 -1481 -6 -1375 80 -1461 84 -84 15 -80
1176 -77 1005 3 1020 3 1057 23 l38 21 82 -28 c85 -29 139 -33 237 -18 32 4
95 3 149 -3 175 -19 293 24 422 152 178 178 264 458 214 696 -41 197 -182 356
-347 395 -62 14 -119 12 -240 -7 -88 -14 -109 -14 -122 -4 -26 22 -18 31 27
31 59 0 143 26 199 62 86 54 163 160 156 216 -4 36 -48 51 -150 51 -91 1 -165
-23 -233 -75 -54 -41 -57 -31 -10 30 39 52 44 80 16 96 -29 15 -46 4 -85 -53
-71 -104 -86 -218 -42 -312 l23 -50 -89 15 -88 14 0 796 c0 908 3 868 -79 950
-74 74 -103 80 -375 80 l-231 0 -25 53 c-14 29 -36 57 -50 64 -15 8 -68 13
-132 13 -104 0 -108 1 -108 21 0 72 -60 163 -132 200 -44 23 -121 32 -158 20z
m146 -106 c26 -17 63 -86 64 -117 0 -16 -14 -18 -155 -18 -175 0 -171 -2 -136
77 39 85 145 112 227 58z m329 -223 c27 -8 35 -22 97 -177 37 -93 68 -171 68
-172 0 -2 -264 -3 -586 -3 -465 0 -585 3 -581 13 82 206 131 324 137 332 10
13 823 19 865 7z m-1008 -134 c-3 -7 -12 -32 -22 -54 l-16 -42 -157 -4 c-170
-4 -195 -11 -237 -66 -20 -27 -20 -45 -23 -1262 -2 -1218 -2 -1235 18 -1268
11 -18 34 -41 52 -52 32 -20 51 -20 962 -20 l928 1 60 -62 c33 -33 57 -64 53
-67 -4 -4 -466 -7 -1028 -7 -946 0 -1024 1 -1053 17 -39 21 -82 71 -92 106 -4
15 -7 619 -7 1342 l0 1315 24 43 c48 83 73 90 335 91 163 1 207 -2 203 -11z
m1656 -18 c20 -13 45 -41 56 -61 21 -36 21 -48 21 -850 l0 -814 -58 -18 c-31
-10 -63 -20 -69 -23 -10 -5 -13 156 -13 784 l0 789 -22 33 c-47 68 -64 74
-218 78 l-139 4 -16 42 c-10 22 -20 47 -22 54 -5 11 35 13 219 10 220 -3 225
-3 261 -28z m-1733 -196 c0 -15 12 -38 29 -55 l29 -29 607 0 607 0 29 29 c17
17 29 40 29 55 l0 26 114 0 c107 0 116 -1 130 -22 14 -20 16 -115 16 -830 l0
-808 -44 -60 c-24 -32 -54 -84 -67 -115 l-23 -55 -542 0 c-328 0 -553 -4 -568
-10 -32 -12 -36 -54 -7 -70 13 -6 205 -10 554 -10 l534 0 1 -117 c1 -132 20
-225 71 -336 l30 -67 -895 0 c-881 0 -894 0 -914 20 -20 20 -20 33 -20 1232 0
1113 1 1213 17 1230 14 16 33 18 150 18 l133 0 0 -26z m2460 -1272 c0 -13 -45
-70 -71 -90 -48 -38 -111 -63 -173 -69 -37 -3 -66 -2 -69 4 -16 26 87 121 160
148 41 15 153 20 153 7z m-430 -353 c131 -22 158 -21 308 8 250 49 433 -95
473 -370 28 -198 -51 -436 -191 -578 -111 -112 -215 -148 -373 -128 -68 9
-109 9 -171 0 -148 -22 -255 17 -372 133 -80 80 -132 166 -166 276 -31 101
-33 305 -4 390 52 151 138 245 256 276 64 18 98 17 240 -7z"/>
<path d="M875 2491 c-48 -12 -90 -38 -122 -75 -88 -99 -65 -258 49 -333 36
-24 51 -28 118 -28 67 0 82 4 118 28 85 56 124 166 92 262 -33 99 -157 170
-255 146z m122 -101 c59 -36 80 -117 48 -183 -61 -124 -249 -87 -263 51 -8 89
48 152 138 152 27 0 58 -8 77 -20z"/>
<path d="M1222 2408 c-16 -16 -15 -43 2 -57 9 -8 169 -10 577 -9 l564 3 3 23
c8 53 24 52 -577 52 -420 0 -560 -3 -569 -12z"/>
<path d="M1217 2193 c-14 -13 -6 -53 12 -63 12 -6 115 -10 263 -10 264 0 283
3 276 51 l-3 24 -271 3 c-149 1 -273 -1 -277 -5z"/>
<path d="M825 1791 c-172 -80 -166 -333 10 -407 78 -32 177 -14 239 44 88 82
88 242 0 324 -62 58 -171 75 -249 39z m161 -77 c68 -33 97 -134 55 -198 -77
-117 -261 -68 -261 69 0 109 106 176 206 129z"/>
<path d="M1226 1727 c-11 -8 -17 -23 -14 -38 l3 -24 575 0 575 0 3 24 c8 51
10 51 -578 51 -434 0 -550 -3 -564 -13z"/>
<path d="M1214 1495 c-13 -53 -4 -55 276 -55 277 0 285 2 278 52 l-3 23 -272
3 -273 2 -6 -25z"/>
<path d="M842 1117 c-87 -32 -142 -113 -142 -211 0 -70 24 -121 81 -169 141
-121 359 -18 359 169 0 158 -150 264 -298 211z m136 -81 c73 -38 103 -126 68
-195 -48 -91 -193 -96 -246 -8 -70 115 61 264 178 203z"/>
<path d="M1222 828 c-16 -16 -15 -43 2 -57 9 -8 89 -11 271 -9 233 3 259 5
269 21 8 12 8 22 0 35 -10 15 -36 17 -270 20 -194 2 -263 -1 -272 -10z"/>
</g>
</svg>
