<?xml version="1.0" standalone="no"?>
<!DOCTYPE svg PUBLIC "-//W3C//DTD SVG 20010904//EN"
 "http://www.w3.org/TR/2001/REC-SVG-20010904/DTD/svg10.dtd">
<svg version="1.0" xmlns="http://www.w3.org/2000/svg"
 width="512.000000pt" height="512.000000pt" viewBox="0 0 512.000000 512.000000"
 preserveAspectRatio="xMidYMid meet">
<metadata>
Created by potrace 1.16, written by Peter Selinger 2001-2019
</metadata>
<g transform="translate(0.000000,512.000000) scale(0.100000,-0.100000)"
fill="#000000" stroke="none">
<path d="M2240 5105 c-389 -48 -766 -188 -1091 -404 -504 -335 -871 -825
-1043 -1395 -41 -132 -81 -333 -96 -468 -13 -125 -13 -431 0 -556 108 -1014
825 -1880 1804 -2176 132 -41 333 -81 468 -96 125 -13 431 -13 556 0 592 63
1141 332 1563 766 289 299 494 645 613 1038 74 243 106 468 106 746 0 209 -10
324 -46 505 -181 920 -867 1676 -1768 1949 -132 41 -333 81 -468 96 -131 14
-469 11 -598 -5z m637 -335 c245 -36 459 -103 678 -212 576 -288 1004 -814
1166 -1435 93 -355 93 -771 0 -1126 -203 -778 -820 -1395 -1598 -1598 -355
-93 -771 -93 -1126 0 -535 139 -1006 480 -1310 946 -127 195 -229 427 -288
652 -93 355 -93 771 0 1126 225 863 949 1513 1834 1647 174 26 468 26 644 0z"/>
<path d="M2077 3843 l-117 -118 582 -582 583 -583 -583 -583 -582 -582 118
-118 117 -117 652 653 c363 363 657 664 663 680 14 40 12 104 -5 140 -8 18
-306 323 -663 680 l-647 647 -118 -117z"/>
</g>
</svg>
