<?xml version="1.0" standalone="no"?>
<!DOCTYPE svg PUBLIC "-//W3C//DTD SVG 20010904//EN"
 "http://www.w3.org/TR/2001/REC-SVG-20010904/DTD/svg10.dtd">
<svg version="1.0" xmlns="http://www.w3.org/2000/svg"
 width="800.000000pt" height="800.000000pt" viewBox="0 0 800.000000 800.000000"
 preserveAspectRatio="xMidYMid meet">

<g transform="translate(0.000000,800.000000) scale(0.100000,-0.100000)"
fill="#000000" stroke="none">
<path d="M3910 7509 c-139 -27 -262 -190 -262 -347 0 -58 5 -75 66 -200 53
-109 68 -151 75 -207 15 -121 1 -169 -90 -320 -85 -142 -136 -255 -171 -382
-18 -64 -22 -106 -22 -233 -1 -175 4 -206 95 -627 72 -339 90 -452 79 -519 -5
-28 -36 -135 -69 -239 -77 -238 -96 -326 -87 -419 9 -100 20 -134 87 -278 60
-129 67 -157 49 -218 -25 -84 -50 -239 -56 -338 -7 -120 9 -402 32 -562 26
-187 27 -272 5 -527 -12 -134 -21 -275 -21 -314 0 -94 22 -236 76 -502 40
-192 45 -234 46 -355 0 -86 -6 -177 -17 -245 -19 -118 -14 -171 15 -187 22
-12 192 -13 513 -3 l227 6 0 23 c0 18 -8 25 -37 33 -21 6 -54 11 -73 11 -47 1
-160 41 -219 80 -63 40 -128 110 -151 163 -40 92 -49 335 -20 574 6 43 14 177
20 298 5 121 14 254 20 295 5 41 17 136 25 210 10 87 46 265 101 499 120 516
144 669 144 930 0 93 9 208 29 361 39 302 42 345 51 950 7 504 8 527 29 578
15 38 21 73 21 130 0 136 -37 224 -185 444 -51 76 -99 154 -105 174 -17 50 -8
205 15 276 10 33 31 70 47 85 27 26 36 28 109 28 91 0 99 5 99 74 0 26 6 52
15 61 9 10 16 32 17 51 1 64 7 77 38 87 41 15 39 41 -11 112 -42 60 -47 76
-35 125 10 46 -52 165 -124 236 -66 67 -137 105 -229 125 -74 15 -96 16 -161
3z"/>
</g>
</svg>
