<?xml version="1.0" standalone="no"?>
<!DOCTYPE svg PUBLIC "-//W3C//DTD SVG 20010904//EN"
 "http://www.w3.org/TR/2001/REC-SVG-20010904/DTD/svg10.dtd">
<svg version="1.0" xmlns="http://www.w3.org/2000/svg"
 width="259.000000pt" height="247.000000pt" viewBox="0 0 259.000000 247.000000"
 preserveAspectRatio="xMidYMid meet">

<g transform="translate(0.000000,247.000000) scale(0.100000,-0.100000)"
fill="#000000" stroke="none">
<path d="M1187 2230 c-28 -22 -48 -71 -45 -110 1 -14 -2 -35 -6 -47 -4 -13 -3
-23 2 -23 5 0 12 -18 16 -40 6 -36 9 -40 36 -40 17 0 30 -3 30 -6 0 -23 -32
-51 -94 -79 -39 -18 -77 -39 -84 -47 -8 -10 -14 -60 -16 -139 -3 -103 -8 -136
-30 -194 -14 -38 -26 -88 -27 -110 0 -22 -8 -62 -18 -90 -14 -39 -25 -54 -52
-67 -38 -18 -89 -68 -70 -68 7 0 21 5 32 10 26 15 25 1 -7 -61 -20 -40 -23
-54 -13 -65 6 -7 15 -11 20 -8 5 3 9 0 9 -5 0 -20 19 -11 34 17 15 26 15 26
16 4 0 -37 15 -18 44 60 15 40 45 111 66 158 45 98 70 171 70 203 0 12 5 29
11 37 18 25 2 -146 -26 -274 -28 -128 -30 -199 -14 -378 8 -88 8 -141 0 -197
-9 -63 -8 -98 6 -196 23 -167 21 -279 -7 -317 -33 -45 -24 -62 34 -66 27 -2
53 1 58 6 5 5 9 71 9 147 1 100 6 163 21 229 12 56 17 107 13 131 -3 24 1 61
9 90 8 28 20 86 26 130 6 44 15 103 20 130 5 28 9 69 9 93 1 35 4 42 21 42 17
0 20 -7 21 -42 0 -24 4 -65 9 -93 5 -27 14 -86 20 -130 6 -44 18 -102 26 -130
8 -29 12 -66 9 -90 -4 -24 1 -76 14 -131 14 -65 20 -129 20 -218 0 -167 0
-168 64 -164 57 3 73 24 43 57 -33 37 -38 130 -16 289 18 127 19 158 9 232 -8
63 -8 113 0 194 17 166 14 253 -14 383 -28 133 -43 298 -26 273 6 -8 11 -24
11 -36 0 -28 41 -145 78 -224 17 -36 43 -96 58 -135 32 -81 44 -99 44 -65 l1
25 15 -27 c15 -28 34 -37 34 -17 0 5 4 8 9 5 5 -3 14 1 20 8 10 11 8 23 -7 53
-11 21 -23 49 -27 61 -6 21 -5 23 13 13 12 -6 26 -11 33 -11 20 0 -32 50 -71
68 -28 14 -37 27 -52 72 -9 30 -17 71 -18 90 0 19 -12 67 -26 105 -22 59 -27
90 -30 194 -3 144 -4 145 -99 186 -60 25 -66 30 -76 68 -6 22 -8 57 -6 76 3
20 9 57 13 83 13 91 -29 138 -124 138 -34 0 -57 -6 -75 -20z"/>
</g>
</svg>
