<?xml version="1.0" standalone="no"?>
<!DOCTYPE svg PUBLIC "-//W3C//DTD SVG 20010904//EN"
 "http://www.w3.org/TR/2001/REC-SVG-20010904/DTD/svg10.dtd">
<svg version="1.0" xmlns="http://www.w3.org/2000/svg"
 width="200.000000pt" height="252.000000pt" viewBox="0 0 200.000000 252.000000"
 preserveAspectRatio="xMidYMid meet">

<g transform="translate(0.000000,252.000000) scale(0.100000,-0.100000)"
fill="#000000" stroke="none">
<path d="M922 2397 c-16 -17 -22 -36 -22 -70 0 -26 -4 -47 -10 -47 -17 0 -11
-33 12 -70 25 -41 28 -110 7 -136 -8 -10 -46 -32 -84 -49 -39 -18 -77 -40 -85
-50 -11 -13 -17 -54 -21 -144 -4 -96 -11 -145 -31 -206 -14 -44 -33 -118 -41
-163 -17 -91 -37 -132 -65 -132 -10 0 -33 -16 -52 -35 -33 -34 -28 -45 11 -25
25 14 24 9 -7 -61 -27 -58 -26 -96 0 -86 8 3 17 1 20 -6 4 -8 9 -6 18 6 36 51
39 53 32 24 -13 -57 12 -23 45 61 19 48 51 124 72 170 41 88 79 205 79 241 0
14 4 20 11 15 15 -9 4 -125 -27 -271 -33 -161 -37 -237 -21 -406 11 -112 11
-169 4 -233 -9 -65 -8 -111 4 -201 7 -65 14 -163 14 -218 0 -88 -3 -105 -23
-138 -33 -53 -25 -67 42 -67 40 0 55 4 60 16 3 9 6 77 6 153 0 100 5 161 20
227 11 49 20 121 20 161 0 39 4 83 9 96 11 27 61 360 61 401 0 19 5 26 19 26
15 0 20 -10 25 -62 12 -110 48 -342 57 -366 5 -13 9 -56 9 -95 0 -40 9 -112
20 -161 15 -66 20 -127 20 -227 0 -76 3 -144 6 -153 5 -12 20 -16 60 -16 67 0
75 14 42 67 -20 33 -23 51 -23 133 0 52 6 150 14 218 11 94 12 142 4 207 -7
63 -7 120 4 232 16 169 12 245 -22 407 -29 140 -42 276 -27 276 5 0 13 -22 17
-49 4 -26 27 -97 51 -157 25 -60 64 -155 87 -211 40 -98 67 -135 53 -75 -7 28
-4 26 32 -25 9 -12 14 -14 18 -6 3 7 12 9 20 6 27 -10 27 29 1 83 -33 66 -34
78 -8 64 39 -20 44 -9 11 25 -19 19 -42 35 -52 35 -28 0 -48 41 -65 132 -8 45
-27 119 -41 163 -20 61 -27 110 -31 206 -4 90 -10 131 -21 144 -8 10 -47 32
-86 50 -104 48 -126 90 -84 168 28 52 18 169 -16 204 -33 33 -121 33 -152 0z"/>
</g>
</svg>
