<?xml version="1.0" standalone="no"?>
<!DOCTYPE svg PUBLIC "-//W3C//DTD SVG 20010904//EN"
 "http://www.w3.org/TR/2001/REC-SVG-20010904/DTD/svg10.dtd">
<svg version="1.0" xmlns="http://www.w3.org/2000/svg"
 width="1000.000000pt" height="1000.000000pt" viewBox="0 0 1000.000000 1000.000000"
 preserveAspectRatio="xMidYMid meet">
<metadata>
Created by potrace 1.16, written by Peter Selinger 2001-2019
</metadata>
<g transform="translate(0.000000,1000.000000) scale(0.100000,-0.100000)"
fill="#000000" stroke="none">
<path d="M6604 7525 c-373 -268 -526 -384 -572 -433 -76 -81 -143 -208 -166
-314 -12 -57 -36 -396 -36 -514 0 -22 -314 -284 -1480 -1237 -140 -114 -263
-220 -272 -235 -25 -38 -23 -102 5 -143 46 -68 113 -77 198 -26 30 18 311 199
624 402 314 202 709 458 879 568 170 110 317 202 326 204 10 3 121 -25 247
-61 125 -36 263 -70 306 -76 136 -17 287 14 409 83 61 34 1046 738 1047 748 1
5 -126 56 -721 289 -208 82 -208 82 -208 112 0 44 -70 991 -74 995 -1 1 -232
-162 -512 -362z"/>
<path d="M2894 6955 c-431 -82 -731 -331 -893 -739 -80 -199 -119 -405 -128
-662 -16 -481 103 -992 351 -1509 193 -402 380 -665 716 -1008 329 -337 625
-561 955 -723 302 -147 529 -206 800 -207 173 -1 268 13 400 60 484 173 825
676 905 1333 23 192 8 524 -35 745 -27 142 -85 346 -137 485 -57 155 -183 423
-196 418 -5 -1 -81 -50 -169 -106 l-160 -104 39 -101 c73 -194 135 -446 158
-642 15 -135 12 -395 -5 -505 -67 -416 -321 -690 -697 -756 -138 -24 -355 -15
-513 21 -380 86 -699 266 -970 546 -132 137 -210 234 -321 401 -304 455 -464
1006 -425 1460 40 455 190 717 496 868 178 87 380 121 599 101 382 -36 710
-195 1043 -505 47 -44 77 -65 85 -60 7 4 71 55 141 112 l128 105 -88 91 c-123
127 -303 294 -398 368 -308 241 -675 412 -1060 494 -103 22 -151 26 -335 30
-153 2 -236 -1 -286 -11z"/>
<path d="M3697 5760 c-136 -24 -266 -95 -352 -193 -54 -60 -136 -223 -160
-317 -22 -86 -31 -334 -16 -426 31 -176 149 -441 279 -624 86 -121 243 -284
352 -366 108 -82 299 -177 410 -204 387 -97 680 60 755 403 33 150 12 408 -48
604 l-13 42 -249 -161 c-299 -193 -330 -208 -434 -215 -291 -20 -513 250 -437
530 26 97 134 212 401 433 120 98 223 182 229 186 30 20 -204 191 -338 247
-136 56 -277 79 -379 61z"/>
</g>
</svg>
