<?xml version="1.0" standalone="no"?>
<!DOCTYPE svg PUBLIC "-//W3C//DTD SVG 20010904//EN"
 "http://www.w3.org/TR/2001/REC-SVG-20010904/DTD/svg10.dtd">
<svg version="1.0" xmlns="http://www.w3.org/2000/svg"
 width="600.000000pt" height="600.000000pt" viewBox="0 0 600.000000 600.000000"
 preserveAspectRatio="xMidYMid meet">
<metadata>
Created by potrace 1.16, written by Peter Selinger 2001-2019
</metadata>
<g transform="translate(0.000000,600.000000) scale(0.100000,-0.100000)"
fill="#000000" stroke="none">
<path d="M490 4954 c-46 -20 -68 -41 -91 -87 -19 -36 -20 -82 -19 -1868 0
-1548 2 -1835 14 -1857 19 -36 65 -78 99 -91 19 -8 364 -11 1088 -11 l1060 0
24 25 c28 27 34 88 12 116 -30 39 -24 39 -1086 39 l-1031 0 0 1785 0 1785 178
0 178 0 24 -32 c13 -18 86 -108 162 -200 93 -111 151 -172 176 -185 34 -17 75
-18 566 -21 l530 -3 51 26 c48 23 78 54 190 193 74 93 171 208 179 214 6 5 88
7 181 5 l170 -2 5 -965 c3 -531 9 -972 13 -981 4 -8 21 -23 38 -33 38 -22 81
-14 109 21 20 25 20 39 20 1015 0 892 -2 992 -16 1021 -23 45 -44 66 -86 88
-36 18 -81 19 -1370 19 -1164 -1 -1337 -3 -1368 -16z m1030 -221 c4 -36 13
-60 29 -77 l24 -26 282 0 282 0 24 26 c16 17 25 41 29 77 l5 52 169 3 c93 1
173 -1 177 -5 5 -5 -37 -63 -93 -131 l-100 -122 -488 0 c-450 0 -489 1 -508
18 -27 23 -192 225 -192 235 0 4 80 6 178 5 l177 -3 5 -52z"/>
<path d="M4822 4285 c-34 -15 -81 -60 -220 -212 -73 -81 -96 -95 -119 -72 -6
6 -38 13 -71 16 -85 8 -130 -16 -228 -123 -43 -48 -103 -112 -132 -143 -92
-97 -110 -168 -66 -253 14 -27 83 -96 177 -178 21 -18 37 -39 35 -46 -2 -7
-66 -79 -144 -161 -78 -81 -159 -167 -180 -191 -129 -141 -441 -471 -449 -475
-6 -3 -56 35 -110 84 -116 103 -145 119 -213 119 -86 0 -88 -2 -272 -196 -121
-128 -139 -151 -150 -195 -13 -47 1 -129 26 -150 28 -23 35 -13 -159 -218 -97
-102 -108 -122 -109 -197 -2 -66 22 -104 114 -186 154 -136 174 -155 233 -208
104 -94 215 -192 238 -210 68 -53 149 -65 216 -31 33 17 270 256 279 282 5 13
25 11 63 -8 49 -25 126 -22 171 5 52 32 306 305 324 347 8 19 14 47 14 63 0
84 -19 112 -168 242 -40 35 -71 67 -70 71 3 7 75 86 208 229 39 42 283 300
396 420 44 47 100 106 124 133 23 26 47 47 52 47 11 0 50 -31 113 -89 116
-108 173 -132 256 -111 38 9 65 32 191 163 169 173 194 213 184 290 -3 28 -15
64 -26 79 -12 16 -18 34 -14 41 4 6 38 44 75 82 37 39 77 81 89 95 12 14 38
43 59 65 98 105 80 200 -62 327 -45 40 -87 78 -93 83 -258 236 -390 348 -429
366 -48 22 -108 24 -153 4z m262 -327 c299 -268 346 -312 346 -323 -1 -5 -55
-66 -120 -135 l-120 -124 -37 35 c-21 20 -139 125 -261 234 -123 109 -226 204
-229 211 -4 11 221 264 235 264 2 0 86 -73 186 -162z m-672 -131 c18 -17 359
-322 482 -431 162 -143 296 -268 296 -275 0 -11 -231 -251 -241 -251 -5 0 -77
61 -161 137 -84 75 -189 168 -233 207 -350 312 -406 367 -393 385 23 31 222
241 229 241 4 0 14 -6 21 -13z m11 -738 c37 -33 67 -65 67 -71 0 -5 -39 -51
-87 -101 -49 -51 -153 -161 -233 -246 -80 -85 -154 -164 -165 -175 -11 -12
-80 -85 -154 -164 -73 -78 -139 -142 -145 -142 -6 0 -42 29 -81 64 l-70 64 59
63 c33 35 98 105 145 154 48 50 151 160 231 245 80 85 190 203 245 261 55 59
105 108 110 108 6 1 41 -26 78 -60z m-1271 -656 c24 -21 48 -42 54 -48 6 -5
111 -100 234 -210 425 -380 455 -407 455 -422 0 -15 -214 -251 -228 -252 -13
-1 -55 33 -221 184 -6 6 -72 64 -146 130 -74 66 -137 122 -140 125 -3 3 -48
44 -100 90 -52 46 -108 97 -125 111 -16 15 -41 37 -53 48 -13 11 -22 24 -20
29 5 14 232 252 240 252 5 0 27 -17 50 -37z m-121 -623 c84 -74 157 -140 163
-145 6 -6 49 -44 96 -85 46 -41 91 -81 99 -88 11 -11 10 -17 -10 -39 -13 -15
-31 -34 -39 -43 -39 -44 -183 -190 -187 -190 -3 0 -253 220 -273 240 -11 12
-198 177 -228 203 -19 15 -32 32 -30 37 7 23 232 251 244 248 7 -2 81 -64 165
-138z"/>
<path d="M1990 3899 c-112 -51 -166 -170 -126 -279 5 -14 -32 -59 -206 -249
-53 -58 -61 -63 -90 -58 -18 3 -63 -2 -100 -10 l-67 -16 -98 63 c-179 116
-188 124 -185 155 8 68 -55 167 -130 206 -44 23 -133 25 -181 6 -89 -38 -137
-112 -137 -210 0 -65 16 -102 67 -156 51 -53 144 -72 226 -46 l54 17 146 -97
147 -96 0 -53 c0 -127 135 -224 272 -195 121 26 197 152 165 275 -9 33 -12 29
180 240 l73 81 97 6 97 6 55 -47 c31 -26 90 -74 131 -107 41 -33 84 -68 95
-77 11 -9 43 -35 70 -57 l50 -41 0 -63 c0 -77 33 -139 96 -182 33 -24 55 -30
109 -33 82 -5 124 8 169 50 93 87 95 238 4 323 -47 43 -103 59 -189 52 l-76
-6 -204 166 -204 166 0 46 c0 76 -18 122 -69 172 -70 70 -155 87 -241 48z"/>
<path d="M875 2626 c-29 -13 -55 -51 -55 -81 0 -27 22 -63 47 -74 34 -16 1752
-16 1787 0 56 26 58 116 3 150 -31 18 -61 19 -892 19 -689 -1 -866 -3 -890
-14z"/>
<path d="M849 2121 c-16 -16 -29 -40 -29 -53 0 -39 35 -84 70 -92 18 -3 352
-6 742 -6 775 0 752 -2 777 58 16 37 5 77 -26 102 -25 20 -43 20 -765 20
l-740 0 -29 -29z"/>
<path d="M870 1657 c-54 -27 -64 -94 -21 -138 l29 -29 649 0 c641 1 648 1 673
21 20 17 25 30 25 66 0 37 -5 49 -28 69 l-28 24 -637 0 c-491 0 -643 -3 -662
-13z"/>
</g>
</svg>
